<?xml version="1.0" encoding="UTF-8" standalone="no"?>
<!-- Created with Inkscape (http://www.inkscape.org/) -->

<svg
   width="40"
   height="40"
   viewBox="0 0 40 40"
   version="1.1"
   id="svg1"
   xml:space="preserve"
   inkscape:version="1.3 (0e150ed, 2023-07-21)"
   sodipodi:docname="pluginIcon.svg"
   xmlns:inkscape="http://www.inkscape.org/namespaces/inkscape"
   xmlns:sodipodi="http://sodipodi.sourceforge.net/DTD/sodipodi-0.dtd"
   xmlns="http://www.w3.org/2000/svg"
   xmlns:svg="http://www.w3.org/2000/svg"><sodipodi:namedview
     id="namedview1"
     pagecolor="#ffffff"
     bordercolor="#000000"
     borderopacity="0.25"
     inkscape:showpageshadow="2"
     inkscape:pageopacity="0.0"
     inkscape:pagecheckerboard="0"
     inkscape:deskcolor="#d1d1d1"
     inkscape:document-units="px"
     inkscape:zoom="2.0971071"
     inkscape:cx="-20.02759"
     inkscape:cy="107.29066"
     inkscape:window-width="3440"
     inkscape:window-height="1281"
     inkscape:window-x="0"
     inkscape:window-y="25"
     inkscape:window-maximized="0"
     inkscape:current-layer="layer1" /><defs
     id="defs1" /><g
     inkscape:label="Layer 1"
     inkscape:groupmode="layer"
     id="layer1"><path
       class="sharpcorners_een"
       d="m 21.692035,25.168281 0.774916,7.90911 h -4.649513 l 0.77492,-7.90911 v -3.163643 h 3.099677 z m 0,-8.700028 v -0.790905 h -3.099677 v 0.790905 H 17.04253 l -1.549837,0.790911 V 16.468253 H 12.39302 v 4.745468 h 3.099673 V 20.42281 l 1.549837,0.790911 h 6.199333 l 0.630012,-0.964123 c 0.574215,-0.880278 1.542088,-1.408604 2.578924,-1.408604 h 1.440582 v -2.372741 z"
       id="path1-5"
       style="fill:#00cb00;fill-opacity:1;stroke-width:0.782879"
       sodipodi:nodetypes="cccccccccccccccccccccsccc" /><g
       style="fill:#008080"
       id="g1"
       transform="matrix(2.3418052,0,0,2.3418052,1.2655585,1.2655585)"><path
         d="m 8.932,0.727 c -0.243,-0.97 -1.62,-0.97 -1.864,0 L 6.997,1.013 A 0.96,0.96 0 0 1 5.375,1.447 L 5.17,1.236 C 4.475,0.517 3.282,1.206 3.557,2.167 l 0.08,0.284 A 0.96,0.96 0 0 1 2.451,3.638 L 2.167,3.557 C 1.207,3.282 0.517,4.475 1.236,5.17 L 1.447,5.375 A 0.96,0.96 0 0 1 1.013,6.997 L 0.727,7.068 c -0.97,0.243 -0.97,1.62 0,1.864 l 0.286,0.071 a 0.96,0.96 0 0 1 0.434,1.622 L 1.236,10.83 c -0.719,0.695 -0.03,1.888 0.931,1.613 l 0.284,-0.08 a 0.96,0.96 0 0 1 1.187,1.187 l -0.081,0.283 c -0.275,0.96 0.918,1.65 1.613,0.931 l 0.205,-0.211 a 0.96,0.96 0 0 1 1.622,0.434 l 0.071,0.286 c 0.243,0.97 1.62,0.97 1.864,0 l 0.071,-0.286 a 0.96,0.96 0 0 1 1.622,-0.434 l 0.205,0.211 c 0.695,0.719 1.888,0.03 1.613,-0.931 l -0.08,-0.284 a 0.96,0.96 0 0 1 1.187,-1.187 l 0.283,0.081 c 0.96,0.275 1.65,-0.918 0.931,-1.613 l -0.211,-0.205 a 0.96,0.96 0 0 1 0.434,-1.622 l 0.286,-0.071 c 0.97,-0.243 0.97,-1.62 0,-1.864 L 14.987,6.997 A 0.96,0.96 0 0 1 14.553,5.375 L 14.764,5.17 c 0.719,-0.695 0.03,-1.888 -0.931,-1.613 l -0.284,0.08 A 0.96,0.96 0 0 1 12.362,2.451 L 12.443,2.167 C 12.718,1.207 11.525,0.517 10.83,1.236 L 10.625,1.447 A 0.96,0.96 0 0 1 9.003,1.013 Z M 8,12.997 a 4.998,4.998 0 1 1 0,-9.995 4.998,4.998 0 0 1 0,9.996 z"
         id="path1"
         style="fill:#008080" /></g></g></svg>
