<?xml version="1.0" encoding="UTF-8" standalone="no"?>
<!-- Created with Inkscape (http://www.inkscape.org/) -->

<svg
   width="40"
   height="40"
   viewBox="0 0 40 40"
   version="1.1"
   id="svg1"
   xml:space="preserve"
   sodipodi:docname="pluginIcon.svg"
   inkscape:version="1.3 (0e150ed, 2023-07-21)"
   xmlns:inkscape="http://www.inkscape.org/namespaces/inkscape"
   xmlns:sodipodi="http://sodipodi.sourceforge.net/DTD/sodipodi-0.dtd"
   xmlns="http://www.w3.org/2000/svg"
   xmlns:svg="http://www.w3.org/2000/svg"><sodipodi:namedview
     id="namedview1"
     pagecolor="#ffffff"
     bordercolor="#000000"
     borderopacity="0.25"
     inkscape:showpageshadow="2"
     inkscape:pageopacity="0.0"
     inkscape:pagecheckerboard="0"
     inkscape:deskcolor="#d1d1d1"
     inkscape:zoom="8.1752571"
     inkscape:cx="24.769863"
     inkscape:cy="37.124215"
     inkscape:window-width="1872"
     inkscape:window-height="1212"
     inkscape:window-x="580"
     inkscape:window-y="126"
     inkscape:window-maximized="0"
     inkscape:current-layer="layer1" /><defs
     id="defs1"><linearGradient
       id="swatch2"><stop
         style="stop-color:#008080;stop-opacity:1;"
         offset="0"
         id="stop2" /></linearGradient></defs><g
     id="layer1"><path
       style="fill:#008080;stroke:none;stroke-linecap:butt;stroke-linejoin:round;stroke-miterlimit:50;stroke-opacity:1"
       id="rect1"
       width="48"
       height="48"
       x="0"
       y="0"
       d="m 7,0 h 34 c 3.878,0 7,3.122 7,7 v 34 c 0,3.878 -3.122,7 -7,7 H 7 C 3.122,48 0,44.878 0,41 V 7 C 0,3.122 3.122,0 7,0 Z"
       ry="7"
       transform="scale(0.83333333)" /><text
       xml:space="preserve"
       style="font-weight:800;font-size:8.66667px;line-height:1;font-family:'JetBrains Mono';-inkscape-font-specification:'JetBrains Mono Ultra-Bold';text-align:center;text-anchor:middle;fill:#ffffff;stroke-width:1.00157;stroke-linejoin:round;stroke-miterlimit:50"
       x="20.023994"
       y="18.959999"
       id="text2"><tspan
         sodipodi:role="line"
         id="tspan2"
         x="20.023994"
         y="18.959999"
         style="font-size:8.66667px">MSBUILD</tspan><tspan
         sodipodi:role="line"
         x="20.023994"
         y="27.626669"
         id="tspan3"
         style="font-size:8.66667px">DEVKIT</tspan></text><rect
       style="fill:#008080;fill-opacity:1;stroke:none;stroke-width:1.07043;stroke-linejoin:round;stroke-miterlimit:50"
       id="rect14"
       width="5.5890918"
       height="7.5704727"
       x="30.249794"
       y="20.777443"
       ry="0" /><path
       class="sharpcorners_een"
       d="m 33.094858,23.535966 0.2003,2.044343 v 2.044345 h -1.201804 v -2.044345 l 0.200301,-2.044343 v -0.817737 h 0.801203 z m 0,-2.248779 v -0.204433 h -0.801203 v 0.204433 h -0.400599 l -0.400601,0.204434 v -0.204434 h -0.801202 v 1.226606 h 0.801202 v -0.204434 l 0.400601,0.204434 h 1.602401 l 0.162845,-0.249206 c 0.148423,-0.227534 0.398598,-0.364095 0.666599,-0.364095 h 0.372361 v -0.613305 z"
       id="path1"
       style="fill:#67ff74;fill-opacity:1;stroke-width:0.202358" /></g><style
     type="text/css"
     id="style1">&#10;	.sharpcorners_een{fill:#111918;}&#10;	.st0{fill:#111918;}&#10;</style></svg>
